<svg width="30" height="30" viewBox="0 0 30 30" fill="none" xmlns="http://www.w3.org/2000/svg">
<g filter="url(#filter0_d)">
<circle cx="15" cy="13" r="10" fill="white"/>
</g>
<path fill-rule="evenodd" clip-rule="evenodd" d="M15 10C14.7239 10 14.5 10.2239 14.5 10.5V12.5H12.5C12.2239 12.5 12 12.7239 12 13C12 13.2761 12.2239 13.5 12.5 13.5H14.5V15.5C14.5 15.7761 14.7239 16 15 16C15.2761 16 15.5 15.7761 15.5 15.5V13.5H17.5C17.7761 13.5 18 13.2761 18 13C18 12.7239 17.7761 12.5 17.5 12.5H15.5V10.5C15.5 10.2239 15.2761 10 15 10Z" fill="#7838A2"/>
<defs>
<filter id="filter0_d" x="0" y="0" width="30" height="30" filterUnits="userSpaceOnUse" color-interpolation-filters="sRGB">
<feFlood flood-opacity="0" result="BackgroundImageFix"/>
<feColorMatrix in="SourceAlpha" type="matrix" values="0 0 0 0 0 0 0 0 0 0 0 0 0 0 0 0 0 0 127 0"/>
<feOffset dy="2"/>
<feGaussianBlur stdDeviation="2.5"/>
<feColorMatrix type="matrix" values="0 0 0 0 0 0 0 0 0 0 0 0 0 0 0 0 0 0 0.14 0"/>
<feBlend mode="normal" in2="BackgroundImageFix" result="effect1_dropShadow"/>
<feBlend mode="normal" in="SourceGraphic" in2="effect1_dropShadow" result="shape"/>
</filter>
</defs>
</svg>
