<?xml version="1.0" encoding="UTF-8"?>
<svg xmlns="http://www.w3.org/2000/svg" xmlns:xlink="http://www.w3.org/1999/xlink" viewBox="0 0 24 24" width="24px" height="24px">
<g id="surface28822263">
<path style=" stroke:none;fill-rule:nonzero;fill:rgb(100%,100%,100%);fill-opacity:1;" d="M 7 1 C 6.449219 1 6 1.449219 6 2 L 6 3 L 5 3 C 3.898438 3 3 3.898438 3 5 L 3 19 C 3 20.101562 3.898438 21 5 21 L 19 21 C 20.101562 21 21 20.101562 21 19 L 21 5 C 21 3.898438 20.101562 3 19 3 L 18 3 L 18 2 C 18 1.449219 17.550781 1 17 1 C 16.449219 1 16 1.449219 16 2 L 16 3 L 8 3 L 8 2 C 8 1.449219 7.550781 1 7 1 Z M 5 8 L 19 8 L 19 18 C 19 18.550781 18.550781 19 18 19 L 6 19 C 5.449219 19 5 18.550781 5 18 Z M 5 8 "/>
</g>
</svg>
