<svg width="1019" height="91" viewBox="0 0 1019 91" fill="none" xmlns="http://www.w3.org/2000/svg">
<rect x="19.5" width="1" height="74" fill="#E9E9E9"/>
<path d="M8.77811 87.132C10.7801 87.132 11.5831 85.119 11.5831 83.337C11.5831 81.544 10.7801 79.553 8.77811 79.553C6.76511 79.553 5.97311 81.544 5.97311 83.337C5.97311 85.119 6.76511 87.132 8.77811 87.132ZM8.77811 86.318C7.38111 86.318 6.90811 84.8 6.90811 83.337C6.90811 81.874 7.38111 80.367 8.77811 80.367C10.1751 80.367 10.6481 81.874 10.6481 83.337C10.6481 84.8 10.1751 86.318 8.77811 86.318ZM15.1065 87.121C17.1635 87.121 18.0985 85.317 18.0985 83.337C18.0985 81.335 17.3065 79.542 15.2605 79.542C13.6545 79.542 12.6865 80.675 12.6865 81.94C12.6865 83.502 13.7755 84.283 15.0955 84.283C16.0305 84.283 16.8445 83.645 17.1635 83.139C17.1745 83.238 17.1745 83.337 17.1745 83.425C17.1745 84.822 16.5915 86.307 15.1065 86.307C14.3475 86.307 13.9075 85.999 13.5335 85.559L13.0715 86.241C13.5335 86.758 14.1715 87.121 15.1065 87.121ZM15.3045 83.491C14.3585 83.491 13.6105 82.985 13.6105 81.907C13.6105 81.203 14.1715 80.356 15.2935 80.356C16.5695 80.356 17.0535 81.489 17.1415 82.391C16.7455 83.04 16.0305 83.491 15.3045 83.491ZM19.9115 82.82C20.2415 82.82 20.5165 82.534 20.5165 82.215C20.5165 81.885 20.2415 81.61 19.9115 81.61C19.5815 81.61 19.3065 81.885 19.3065 82.215C19.3065 82.534 19.5815 82.82 19.9115 82.82ZM19.9115 87.11C20.2415 87.11 20.5165 86.835 20.5165 86.505C20.5165 86.175 20.2415 85.9 19.9115 85.9C19.5815 85.9 19.3065 86.175 19.3065 86.505C19.3065 86.835 19.5815 87.11 19.9115 87.11ZM24.4832 87.132C26.4852 87.132 27.2882 85.119 27.2882 83.337C27.2882 81.544 26.4852 79.553 24.4832 79.553C22.4702 79.553 21.6782 81.544 21.6782 83.337C21.6782 85.119 22.4702 87.132 24.4832 87.132ZM24.4832 86.318C23.0862 86.318 22.6132 84.8 22.6132 83.337C22.6132 81.874 23.0862 80.367 24.4832 80.367C25.8802 80.367 26.3532 81.874 26.3532 83.337C26.3532 84.8 25.8802 86.318 24.4832 86.318ZM31.2185 87.132C33.2205 87.132 34.0235 85.119 34.0235 83.337C34.0235 81.544 33.2205 79.553 31.2185 79.553C29.2055 79.553 28.4135 81.544 28.4135 83.337C28.4135 85.119 29.2055 87.132 31.2185 87.132ZM31.2185 86.318C29.8215 86.318 29.3485 84.8 29.3485 83.337C29.3485 81.874 29.8215 80.367 31.2185 80.367C32.6155 80.367 33.0885 81.874 33.0885 83.337C33.0885 84.8 32.6155 86.318 31.2185 86.318Z" fill="#A5A5A5"/>
<rect x="64" width="1" height="74" fill="#E9E9E9"/>
<rect x="108.5" width="1" height="74" fill="#E9E9E9"/>
<path d="M98.6689 87V79.663H97.8659L96.0289 81.555L96.5789 82.116L97.7559 80.862V87H98.6689ZM102.891 87.132C104.893 87.132 105.696 85.119 105.696 83.337C105.696 81.544 104.893 79.553 102.891 79.553C100.878 79.553 100.086 81.544 100.086 83.337C100.086 85.119 100.878 87.132 102.891 87.132ZM102.891 86.318C101.494 86.318 101.021 84.8 101.021 83.337C101.021 81.874 101.494 80.367 102.891 80.367C104.288 80.367 104.761 81.874 104.761 83.337C104.761 84.8 104.288 86.318 102.891 86.318ZM107.526 82.82C107.856 82.82 108.131 82.534 108.131 82.215C108.131 81.885 107.856 81.61 107.526 81.61C107.196 81.61 106.921 81.885 106.921 82.215C106.921 82.534 107.196 82.82 107.526 82.82ZM107.526 87.11C107.856 87.11 108.131 86.835 108.131 86.505C108.131 86.175 107.856 85.9 107.526 85.9C107.196 85.9 106.921 86.175 106.921 86.505C106.921 86.835 107.196 87.11 107.526 87.11ZM112.097 87.132C114.099 87.132 114.902 85.119 114.902 83.337C114.902 81.544 114.099 79.553 112.097 79.553C110.084 79.553 109.292 81.544 109.292 83.337C109.292 85.119 110.084 87.132 112.097 87.132ZM112.097 86.318C110.7 86.318 110.227 84.8 110.227 83.337C110.227 81.874 110.7 80.367 112.097 80.367C113.494 80.367 113.967 81.874 113.967 83.337C113.967 84.8 113.494 86.318 112.097 86.318ZM118.833 87.132C120.835 87.132 121.638 85.119 121.638 83.337C121.638 81.544 120.835 79.553 118.833 79.553C116.82 79.553 116.028 81.544 116.028 83.337C116.028 85.119 116.82 87.132 118.833 87.132ZM118.833 86.318C117.436 86.318 116.963 84.8 116.963 83.337C116.963 81.874 117.436 80.367 118.833 80.367C120.23 80.367 120.703 81.874 120.703 83.337C120.703 84.8 120.23 86.318 118.833 86.318Z" fill="#A5A5A5"/>
<rect x="153" width="1" height="74" fill="#E9E9E9"/>
<rect x="197.5" width="1" height="74" fill="#E9E9E9"/>
<path d="M189.173 87V79.663H188.37L186.533 81.555L187.083 82.116L188.26 80.862V87H189.173ZM192.9 87V79.663H192.097L190.26 81.555L190.81 82.116L191.987 80.862V87H192.9ZM195.022 82.82C195.352 82.82 195.627 82.534 195.627 82.215C195.627 81.885 195.352 81.61 195.022 81.61C194.692 81.61 194.417 81.885 194.417 82.215C194.417 82.534 194.692 82.82 195.022 82.82ZM195.022 87.11C195.352 87.11 195.627 86.835 195.627 86.505C195.627 86.175 195.352 85.9 195.022 85.9C194.692 85.9 194.417 86.175 194.417 86.505C194.417 86.835 194.692 87.11 195.022 87.11ZM199.594 87.132C201.596 87.132 202.399 85.119 202.399 83.337C202.399 81.544 201.596 79.553 199.594 79.553C197.581 79.553 196.789 81.544 196.789 83.337C196.789 85.119 197.581 87.132 199.594 87.132ZM199.594 86.318C198.197 86.318 197.724 84.8 197.724 83.337C197.724 81.874 198.197 80.367 199.594 80.367C200.991 80.367 201.464 81.874 201.464 83.337C201.464 84.8 200.991 86.318 199.594 86.318ZM206.329 87.132C208.331 87.132 209.134 85.119 209.134 83.337C209.134 81.544 208.331 79.553 206.329 79.553C204.316 79.553 203.524 81.544 203.524 83.337C203.524 85.119 204.316 87.132 206.329 87.132ZM206.329 86.318C204.932 86.318 204.459 84.8 204.459 83.337C204.459 81.874 204.932 80.367 206.329 80.367C207.726 80.367 208.199 81.874 208.199 83.337C208.199 84.8 207.726 86.318 206.329 86.318Z" fill="#A5A5A5"/>
<rect x="242" width="1" height="74" fill="#E9E9E9"/>
<rect x="286.5" width="1" height="74" fill="#E9E9E9"/>
<path d="M276.803 87V79.663H276L274.163 81.555L274.713 82.116L275.89 80.862V87H276.803ZM283.292 87V86.186H279.695C281.741 84.569 283.259 83.205 283.259 81.709C283.259 80.246 282.016 79.553 280.795 79.553C279.761 79.553 278.804 79.96 278.243 80.708L278.804 81.291C279.233 80.741 279.915 80.367 280.795 80.367C281.554 80.367 282.335 80.763 282.335 81.709C282.335 82.974 280.894 84.195 278.254 86.263V87H283.292ZM285.391 82.82C285.721 82.82 285.996 82.534 285.996 82.215C285.996 81.885 285.721 81.61 285.391 81.61C285.061 81.61 284.786 81.885 284.786 82.215C284.786 82.534 285.061 82.82 285.391 82.82ZM285.391 87.11C285.721 87.11 285.996 86.835 285.996 86.505C285.996 86.175 285.721 85.9 285.391 85.9C285.061 85.9 284.786 86.175 284.786 86.505C284.786 86.835 285.061 87.11 285.391 87.11ZM289.963 87.132C291.965 87.132 292.768 85.119 292.768 83.337C292.768 81.544 291.965 79.553 289.963 79.553C287.95 79.553 287.158 81.544 287.158 83.337C287.158 85.119 287.95 87.132 289.963 87.132ZM289.963 86.318C288.566 86.318 288.093 84.8 288.093 83.337C288.093 81.874 288.566 80.367 289.963 80.367C291.36 80.367 291.833 81.874 291.833 83.337C291.833 84.8 291.36 86.318 289.963 86.318ZM296.699 87.132C298.701 87.132 299.504 85.119 299.504 83.337C299.504 81.544 298.701 79.553 296.699 79.553C294.686 79.553 293.894 81.544 293.894 83.337C293.894 85.119 294.686 87.132 296.699 87.132ZM296.699 86.318C295.302 86.318 294.829 84.8 294.829 83.337C294.829 81.874 295.302 80.367 296.699 80.367C298.096 80.367 298.569 81.874 298.569 83.337C298.569 84.8 298.096 86.318 296.699 86.318Z" fill="#A5A5A5"/>
<rect x="331" width="1" height="74" fill="#E9E9E9"/>
<rect x="375.5" width="1" height="74" fill="#E9E9E9"/>
<path d="M365.975 87V79.663H365.172L363.335 81.555L363.885 82.116L365.062 80.862V87H365.975ZM369.758 87.132C371.375 87.132 372.365 86.241 372.365 85.02C372.365 83.832 371.331 83.271 370.671 83.205C371.353 83.095 372.244 82.567 372.244 81.5C372.244 80.268 371.177 79.553 369.769 79.553C368.625 79.553 367.778 80.037 367.25 80.686L367.756 81.258C368.295 80.675 368.889 80.367 369.692 80.367C370.583 80.367 371.331 80.807 371.331 81.621C371.331 82.468 370.55 82.831 369.626 82.831C369.329 82.831 368.988 82.831 368.867 82.82V83.656C368.977 83.645 369.318 83.645 369.626 83.645C370.704 83.645 371.452 84.03 371.452 84.943C371.452 85.779 370.803 86.318 369.736 86.318C368.867 86.318 368.119 85.922 367.69 85.35L367.151 85.922C367.602 86.582 368.515 87.132 369.758 87.132ZM374.22 82.82C374.55 82.82 374.825 82.534 374.825 82.215C374.825 81.885 374.55 81.61 374.22 81.61C373.89 81.61 373.615 81.885 373.615 82.215C373.615 82.534 373.89 82.82 374.22 82.82ZM374.22 87.11C374.55 87.11 374.825 86.835 374.825 86.505C374.825 86.175 374.55 85.9 374.22 85.9C373.89 85.9 373.615 86.175 373.615 86.505C373.615 86.835 373.89 87.11 374.22 87.11ZM378.791 87.132C380.793 87.132 381.596 85.119 381.596 83.337C381.596 81.544 380.793 79.553 378.791 79.553C376.778 79.553 375.986 81.544 375.986 83.337C375.986 85.119 376.778 87.132 378.791 87.132ZM378.791 86.318C377.394 86.318 376.921 84.8 376.921 83.337C376.921 81.874 377.394 80.367 378.791 80.367C380.188 80.367 380.661 81.874 380.661 83.337C380.661 84.8 380.188 86.318 378.791 86.318ZM385.527 87.132C387.529 87.132 388.332 85.119 388.332 83.337C388.332 81.544 387.529 79.553 385.527 79.553C383.514 79.553 382.722 81.544 382.722 83.337C382.722 85.119 383.514 87.132 385.527 87.132ZM385.527 86.318C384.13 86.318 383.657 84.8 383.657 83.337C383.657 81.874 384.13 80.367 385.527 80.367C386.924 80.367 387.397 81.874 387.397 83.337C387.397 84.8 386.924 86.318 385.527 86.318Z" fill="#A5A5A5"/>
<rect x="420" width="1" height="74" fill="#E9E9E9"/>
<rect x="464.5" width="1" height="74" fill="#E9E9E9"/>
<path d="M454.97 87V79.663H454.167L452.33 81.555L452.88 82.116L454.057 80.862V87H454.97ZM460.578 87V85.141H461.612V84.338H460.578V79.663H459.324L456.178 84.382V85.141H459.665V87H460.578ZM459.665 84.338H457.091L459.665 80.51V84.338ZM463.225 82.82C463.555 82.82 463.83 82.534 463.83 82.215C463.83 81.885 463.555 81.61 463.225 81.61C462.895 81.61 462.62 81.885 462.62 82.215C462.62 82.534 462.895 82.82 463.225 82.82ZM463.225 87.11C463.555 87.11 463.83 86.835 463.83 86.505C463.83 86.175 463.555 85.9 463.225 85.9C462.895 85.9 462.62 86.175 462.62 86.505C462.62 86.835 462.895 87.11 463.225 87.11ZM467.797 87.132C469.799 87.132 470.602 85.119 470.602 83.337C470.602 81.544 469.799 79.553 467.797 79.553C465.784 79.553 464.992 81.544 464.992 83.337C464.992 85.119 465.784 87.132 467.797 87.132ZM467.797 86.318C466.4 86.318 465.927 84.8 465.927 83.337C465.927 81.874 466.4 80.367 467.797 80.367C469.194 80.367 469.667 81.874 469.667 83.337C469.667 84.8 469.194 86.318 467.797 86.318ZM474.532 87.132C476.534 87.132 477.337 85.119 477.337 83.337C477.337 81.544 476.534 79.553 474.532 79.553C472.519 79.553 471.727 81.544 471.727 83.337C471.727 85.119 472.519 87.132 474.532 87.132ZM474.532 86.318C473.135 86.318 472.662 84.8 472.662 83.337C472.662 81.874 473.135 80.367 474.532 80.367C475.929 80.367 476.402 81.874 476.402 83.337C476.402 84.8 475.929 86.318 474.532 86.318Z" fill="#A5A5A5"/>
<rect x="509" width="1" height="74" fill="#E9E9E9"/>
<rect x="553.5" width="1" height="74" fill="#E9E9E9"/>
<path d="M543.792 87V79.663H542.989L541.152 81.555L541.702 82.116L542.879 80.862V87H543.792ZM547.96 87.132C549.434 87.132 550.578 86.197 550.578 84.712C550.578 83.194 549.467 82.369 548.235 82.369C547.498 82.369 546.882 82.677 546.519 83.029V80.477H550.094V79.663H545.606V83.612L546.277 83.843C546.772 83.37 547.333 83.161 547.971 83.161C548.961 83.161 549.654 83.777 549.654 84.745C549.654 85.636 548.961 86.318 547.96 86.318C547.069 86.318 546.42 85.966 545.936 85.339L545.375 85.955C545.925 86.681 546.728 87.132 547.96 87.132ZM552.402 82.82C552.732 82.82 553.007 82.534 553.007 82.215C553.007 81.885 552.732 81.61 552.402 81.61C552.072 81.61 551.797 81.885 551.797 82.215C551.797 82.534 552.072 82.82 552.402 82.82ZM552.402 87.11C552.732 87.11 553.007 86.835 553.007 86.505C553.007 86.175 552.732 85.9 552.402 85.9C552.072 85.9 551.797 86.175 551.797 86.505C551.797 86.835 552.072 87.11 552.402 87.11ZM556.974 87.132C558.976 87.132 559.779 85.119 559.779 83.337C559.779 81.544 558.976 79.553 556.974 79.553C554.961 79.553 554.169 81.544 554.169 83.337C554.169 85.119 554.961 87.132 556.974 87.132ZM556.974 86.318C555.577 86.318 555.104 84.8 555.104 83.337C555.104 81.874 555.577 80.367 556.974 80.367C558.371 80.367 558.844 81.874 558.844 83.337C558.844 84.8 558.371 86.318 556.974 86.318ZM563.709 87.132C565.711 87.132 566.514 85.119 566.514 83.337C566.514 81.544 565.711 79.553 563.709 79.553C561.696 79.553 560.904 81.544 560.904 83.337C560.904 85.119 561.696 87.132 563.709 87.132ZM563.709 86.318C562.312 86.318 561.839 84.8 561.839 83.337C561.839 81.874 562.312 80.367 563.709 80.367C565.106 80.367 565.579 81.874 565.579 83.337C565.579 84.8 565.106 86.318 563.709 86.318Z" fill="#A5A5A5"/>
<rect x="598" width="1" height="74" fill="#E9E9E9"/>
<rect x="642.5" width="1" height="74" fill="#E9E9E9"/>
<path d="M632.787 87V79.663H631.984L630.147 81.555L630.697 82.116L631.874 80.862V87H632.787ZM637.043 87.132C638.638 87.132 639.606 85.999 639.606 84.734C639.606 83.172 638.528 82.391 637.208 82.391C636.262 82.391 635.448 83.029 635.129 83.535C635.129 83.436 635.129 83.348 635.129 83.249C635.129 81.808 635.767 80.367 637.197 80.367C637.956 80.367 638.385 80.675 638.759 81.115L639.221 80.433C638.77 79.905 638.132 79.553 637.197 79.553C635.129 79.553 634.205 81.357 634.205 83.337C634.205 85.339 634.986 87.132 637.043 87.132ZM636.999 86.318C635.723 86.318 635.239 85.185 635.162 84.272C635.558 83.634 636.262 83.183 636.999 83.183C637.934 83.183 638.682 83.689 638.682 84.767C638.682 85.46 638.132 86.318 636.999 86.318ZM641.408 82.82C641.738 82.82 642.013 82.534 642.013 82.215C642.013 81.885 641.738 81.61 641.408 81.61C641.078 81.61 640.803 81.885 640.803 82.215C640.803 82.534 641.078 82.82 641.408 82.82ZM641.408 87.11C641.738 87.11 642.013 86.835 642.013 86.505C642.013 86.175 641.738 85.9 641.408 85.9C641.078 85.9 640.803 86.175 640.803 86.505C640.803 86.835 641.078 87.11 641.408 87.11ZM645.979 87.132C647.981 87.132 648.784 85.119 648.784 83.337C648.784 81.544 647.981 79.553 645.979 79.553C643.966 79.553 643.174 81.544 643.174 83.337C643.174 85.119 643.966 87.132 645.979 87.132ZM645.979 86.318C644.582 86.318 644.109 84.8 644.109 83.337C644.109 81.874 644.582 80.367 645.979 80.367C647.376 80.367 647.849 81.874 647.849 83.337C647.849 84.8 647.376 86.318 645.979 86.318ZM652.715 87.132C654.717 87.132 655.52 85.119 655.52 83.337C655.52 81.544 654.717 79.553 652.715 79.553C650.702 79.553 649.91 81.544 649.91 83.337C649.91 85.119 650.702 87.132 652.715 87.132ZM652.715 86.318C651.318 86.318 650.845 84.8 650.845 83.337C650.845 81.874 651.318 80.367 652.715 80.367C654.112 80.367 654.585 81.874 654.585 83.337C654.585 84.8 654.112 86.318 652.715 86.318Z" fill="#A5A5A5"/>
<rect x="687" width="1" height="74" fill="#E9E9E9"/>
<rect x="731.5" width="1" height="74" fill="#E9E9E9"/>
<path d="M722.206 87V79.663H721.403L719.566 81.555L720.116 82.116L721.293 80.862V87H722.206ZM725.406 87L728.409 80.29V79.663H723.404V80.477H727.353L724.394 87H725.406ZM729.989 82.82C730.319 82.82 730.594 82.534 730.594 82.215C730.594 81.885 730.319 81.61 729.989 81.61C729.659 81.61 729.384 81.885 729.384 82.215C729.384 82.534 729.659 82.82 729.989 82.82ZM729.989 87.11C730.319 87.11 730.594 86.835 730.594 86.505C730.594 86.175 730.319 85.9 729.989 85.9C729.659 85.9 729.384 86.175 729.384 86.505C729.384 86.835 729.659 87.11 729.989 87.11ZM734.56 87.132C736.562 87.132 737.365 85.119 737.365 83.337C737.365 81.544 736.562 79.553 734.56 79.553C732.547 79.553 731.755 81.544 731.755 83.337C731.755 85.119 732.547 87.132 734.56 87.132ZM734.56 86.318C733.163 86.318 732.69 84.8 732.69 83.337C732.69 81.874 733.163 80.367 734.56 80.367C735.957 80.367 736.43 81.874 736.43 83.337C736.43 84.8 735.957 86.318 734.56 86.318ZM741.296 87.132C743.298 87.132 744.101 85.119 744.101 83.337C744.101 81.544 743.298 79.553 741.296 79.553C739.283 79.553 738.491 81.544 738.491 83.337C738.491 85.119 739.283 87.132 741.296 87.132ZM741.296 86.318C739.899 86.318 739.426 84.8 739.426 83.337C739.426 81.874 739.899 80.367 741.296 80.367C742.693 80.367 743.166 81.874 743.166 83.337C743.166 84.8 742.693 86.318 741.296 86.318Z" fill="#A5A5A5"/>
<rect x="776" width="1" height="74" fill="#E9E9E9"/>
<rect x="820.5" width="1" height="74" fill="#E9E9E9"/>
<path d="M810.835 87V79.663H810.032L808.195 81.555L808.745 82.116L809.922 80.862V87H810.835ZM814.893 87.132C816.334 87.132 817.522 86.384 817.522 85.141C817.522 84.162 816.686 83.491 815.773 83.216C816.62 82.974 817.412 82.413 817.412 81.456C817.412 80.136 816.103 79.553 814.893 79.553C813.672 79.553 812.385 80.136 812.385 81.456C812.385 82.413 813.166 82.974 814.013 83.216C813.1 83.491 812.264 84.162 812.264 85.141C812.264 86.395 813.441 87.132 814.893 87.132ZM814.893 82.842C814.453 82.765 813.309 82.468 813.309 81.577C813.309 80.818 814.002 80.367 814.893 80.367C815.773 80.367 816.488 80.818 816.488 81.577C816.488 82.468 815.344 82.765 814.893 82.842ZM814.893 86.318C813.98 86.318 813.188 85.834 813.188 85.042C813.188 84.085 814.442 83.678 814.893 83.623C815.344 83.678 816.598 84.085 816.598 85.042C816.598 85.834 815.795 86.318 814.893 86.318ZM819.359 82.82C819.689 82.82 819.964 82.534 819.964 82.215C819.964 81.885 819.689 81.61 819.359 81.61C819.029 81.61 818.754 81.885 818.754 82.215C818.754 82.534 819.029 82.82 819.359 82.82ZM819.359 87.11C819.689 87.11 819.964 86.835 819.964 86.505C819.964 86.175 819.689 85.9 819.359 85.9C819.029 85.9 818.754 86.175 818.754 86.505C818.754 86.835 819.029 87.11 819.359 87.11ZM823.931 87.132C825.933 87.132 826.736 85.119 826.736 83.337C826.736 81.544 825.933 79.553 823.931 79.553C821.918 79.553 821.126 81.544 821.126 83.337C821.126 85.119 821.918 87.132 823.931 87.132ZM823.931 86.318C822.534 86.318 822.061 84.8 822.061 83.337C822.061 81.874 822.534 80.367 823.931 80.367C825.328 80.367 825.801 81.874 825.801 83.337C825.801 84.8 825.328 86.318 823.931 86.318ZM830.666 87.132C832.668 87.132 833.471 85.119 833.471 83.337C833.471 81.544 832.668 79.553 830.666 79.553C828.653 79.553 827.861 81.544 827.861 83.337C827.861 85.119 828.653 87.132 830.666 87.132ZM830.666 86.318C829.269 86.318 828.796 84.8 828.796 83.337C828.796 81.874 829.269 80.367 830.666 80.367C832.063 80.367 832.536 81.874 832.536 83.337C832.536 84.8 832.063 86.318 830.666 86.318Z" fill="#A5A5A5"/>
<rect x="865" width="1" height="74" fill="#E9E9E9"/>
<rect x="909.5" width="1" height="74" fill="#E9E9E9"/>
<path d="M899.787 87V79.663H898.984L897.147 81.555L897.697 82.116L898.874 80.862V87H899.787ZM903.603 87.121C905.66 87.121 906.595 85.317 906.595 83.337C906.595 81.335 905.803 79.542 903.757 79.542C902.151 79.542 901.183 80.675 901.183 81.94C901.183 83.502 902.272 84.283 903.592 84.283C904.527 84.283 905.341 83.645 905.66 83.139C905.671 83.238 905.671 83.337 905.671 83.425C905.671 84.822 905.088 86.307 903.603 86.307C902.844 86.307 902.404 85.999 902.03 85.559L901.568 86.241C902.03 86.758 902.668 87.121 903.603 87.121ZM903.801 83.491C902.855 83.491 902.107 82.985 902.107 81.907C902.107 81.203 902.668 80.356 903.79 80.356C905.066 80.356 905.55 81.489 905.638 82.391C905.242 83.04 904.527 83.491 903.801 83.491ZM908.408 82.82C908.738 82.82 909.013 82.534 909.013 82.215C909.013 81.885 908.738 81.61 908.408 81.61C908.078 81.61 907.803 81.885 907.803 82.215C907.803 82.534 908.078 82.82 908.408 82.82ZM908.408 87.11C908.738 87.11 909.013 86.835 909.013 86.505C909.013 86.175 908.738 85.9 908.408 85.9C908.078 85.9 907.803 86.175 907.803 86.505C907.803 86.835 908.078 87.11 908.408 87.11ZM912.979 87.132C914.981 87.132 915.784 85.119 915.784 83.337C915.784 81.544 914.981 79.553 912.979 79.553C910.966 79.553 910.174 81.544 910.174 83.337C910.174 85.119 910.966 87.132 912.979 87.132ZM912.979 86.318C911.582 86.318 911.109 84.8 911.109 83.337C911.109 81.874 911.582 80.367 912.979 80.367C914.376 80.367 914.849 81.874 914.849 83.337C914.849 84.8 914.376 86.318 912.979 86.318ZM919.715 87.132C921.717 87.132 922.52 85.119 922.52 83.337C922.52 81.544 921.717 79.553 919.715 79.553C917.702 79.553 916.91 81.544 916.91 83.337C916.91 85.119 917.702 87.132 919.715 87.132ZM919.715 86.318C918.318 86.318 917.845 84.8 917.845 83.337C917.845 81.874 918.318 80.367 919.715 80.367C921.112 80.367 921.585 81.874 921.585 83.337C921.585 84.8 921.112 86.318 919.715 86.318Z" fill="#A5A5A5"/>
<rect x="954" width="1" height="74" fill="#E9E9E9"/>
<rect x="998.5" width="1" height="74" fill="#E9E9E9"/>
<path d="M990.06 87V86.186H986.463C988.509 84.569 990.027 83.205 990.027 81.709C990.027 80.246 988.784 79.553 987.563 79.553C986.529 79.553 985.572 79.96 985.011 80.708L985.572 81.291C986.001 80.741 986.683 80.367 987.563 80.367C988.322 80.367 989.103 80.763 989.103 81.709C989.103 82.974 987.662 84.195 985.022 86.263V87H990.06ZM994.261 87.132C996.263 87.132 997.066 85.119 997.066 83.337C997.066 81.544 996.263 79.553 994.261 79.553C992.248 79.553 991.456 81.544 991.456 83.337C991.456 85.119 992.248 87.132 994.261 87.132ZM994.261 86.318C992.864 86.318 992.391 84.8 992.391 83.337C992.391 81.874 992.864 80.367 994.261 80.367C995.658 80.367 996.131 81.874 996.131 83.337C996.131 84.8 995.658 86.318 994.261 86.318ZM998.895 82.82C999.225 82.82 999.5 82.534 999.5 82.215C999.5 81.885 999.225 81.61 998.895 81.61C998.565 81.61 998.29 81.885 998.29 82.215C998.29 82.534 998.565 82.82 998.895 82.82ZM998.895 87.11C999.225 87.11 999.5 86.835 999.5 86.505C999.5 86.175 999.225 85.9 998.895 85.9C998.565 85.9 998.29 86.175 998.29 86.505C998.29 86.835 998.565 87.11 998.895 87.11ZM1003.47 87.132C1005.47 87.132 1006.27 85.119 1006.27 83.337C1006.27 81.544 1005.47 79.553 1003.47 79.553C1001.45 79.553 1000.66 81.544 1000.66 83.337C1000.66 85.119 1001.45 87.132 1003.47 87.132ZM1003.47 86.318C1002.07 86.318 1001.6 84.8 1001.6 83.337C1001.6 81.874 1002.07 80.367 1003.47 80.367C1004.86 80.367 1005.34 81.874 1005.34 83.337C1005.34 84.8 1004.86 86.318 1003.47 86.318ZM1010.2 87.132C1012.2 87.132 1013.01 85.119 1013.01 83.337C1013.01 81.544 1012.2 79.553 1010.2 79.553C1008.19 79.553 1007.4 81.544 1007.4 83.337C1007.4 85.119 1008.19 87.132 1010.2 87.132ZM1010.2 86.318C1008.81 86.318 1008.33 84.8 1008.33 83.337C1008.33 81.874 1008.81 80.367 1010.2 80.367C1011.6 80.367 1012.07 81.874 1012.07 83.337C1012.07 84.8 1011.6 86.318 1010.2 86.318Z" fill="#A5A5A5"/>
</svg>
