<svg width="21" height="23" viewBox="0 0 21 23" fill="none" xmlns="http://www.w3.org/2000/svg">
<path fill-rule="evenodd" clip-rule="evenodd" d="M3.18124 18.1781L4.31224 19.2715L16.3469 9.96921C17.5316 9.85483 18.6388 9.34897 19.4856 8.53032C20.4622 7.58622 21 6.33096 21 4.99582C21 3.66077 20.4621 2.40561 19.4856 1.46164C17.4696 -0.487214 14.1893 -0.487214 12.1734 1.46164C11.3263 2.28042 10.803 3.35097 10.6848 4.49653L1.08409 16.1508L2.19311 17.2229L0.783456 18.5856C0.278232 19.0741 0 19.7234 0 20.4141C0 21.84 1.19999 23 2.67499 23H16.241V21.6491H2.67499C1.97054 21.6491 1.39745 21.0951 1.39745 20.4141C1.39745 20.0842 1.53034 19.7741 1.77164 19.5408L3.18124 18.1781ZM7.36422 15.1828L5.30657 13.1937L9.10311 8.58508L12.1231 11.5044L7.36422 15.1828ZM9.97922 7.52156L13.2212 10.6556L15.032 9.25593L11.4239 5.76791L9.97922 7.52156ZM13.1615 2.41682C14.6327 0.994634 17.0264 0.994725 18.4975 2.41682C19.2101 3.10569 19.6026 4.0216 19.6026 4.99582C19.6026 5.97014 19.2101 6.88614 18.4975 7.57505C17.9111 8.14194 17.1537 8.50263 16.3395 8.6093L12.0916 4.50292C12.202 3.71593 12.5751 2.98375 13.1615 2.41682ZM6.26606 16.0316L4.43047 14.2572L2.95472 16.0487L4.41621 17.4615L6.26606 16.0316Z" fill="url(#paint0_linear)"/>
<defs>
<linearGradient id="paint0_linear" x1="1.26897" y1="21.025" x2="21" y2="21.025" gradientUnits="userSpaceOnUse">
<stop stop-color="#6E319C"/>
<stop offset="1" stop-color="#942D93"/>
</linearGradient>
</defs>
</svg>
