<svg width="21" height="20" viewBox="0 0 21 20" fill="none" xmlns="http://www.w3.org/2000/svg">
<g opacity="0.885068">
<path fill-rule="evenodd" clip-rule="evenodd" d="M3 10.5C3 6.36469 6.36469 3 10.5 3C14.6353 3 18 6.36469 18 10.5C18 14.6353 14.6353 18 10.5 18C6.36469 18 3 14.6353 3 10.5ZM13.5572 14.0259C13.7044 14.0259 13.8488 13.9566 13.9406 13.8263C14.0887 13.6144 14.0381 13.3228 13.8263 13.1737C11.8341 11.7722 8.59031 11.6803 6.42 12.1828C6.16688 12.2419 6.01125 12.4941 6.06938 12.7463C6.1275 12.9984 6.38156 13.1559 6.63188 13.0969C8.60625 12.6366 11.5303 12.705 13.2881 13.9406C13.3697 13.9987 13.4634 14.0259 13.5572 14.0259ZM14.8556 11.9972C14.7638 12.1247 14.6203 12.1922 14.475 12.1922C14.3794 12.1922 14.2847 12.1641 14.2013 12.1041C12.1622 10.6406 9.65719 10.2769 6.31406 10.9594C6.06187 11.0091 5.8125 10.8478 5.76094 10.5938C5.70844 10.3406 5.8725 10.0922 6.12562 10.0406C9.74156 9.30281 12.4809 9.71531 14.7478 11.3419C14.9578 11.4938 15.0066 11.7863 14.8556 11.9972ZM15.3919 9.74625C15.5409 9.74625 15.6891 9.675 15.78 9.54094C15.9244 9.32625 15.87 9.03469 15.6562 8.88937C12.8128 6.96094 8.52563 6.94031 5.75906 7.91813C5.51437 8.00437 5.38688 8.2725 5.47312 8.51625C5.55938 8.76094 5.8275 8.8875 6.07125 8.80312C8.61469 7.90312 12.5437 7.91156 15.1284 9.66562C15.2091 9.72 15.3009 9.74625 15.3919 9.74625Z" fill="#1BD25E"/>
</g>
</svg>
