<svg width="20" height="17" viewBox="0 0 20 17" fill="none" xmlns="http://www.w3.org/2000/svg">
<path fill-rule="evenodd" clip-rule="evenodd" d="M7.5 0C5.19881 0 3.33333 1.90279 3.33333 4.25C3.33333 6.59721 5.19881 8.5 7.5 8.5C9.80119 8.5 11.6667 6.59721 11.6667 4.25C11.6667 1.90279 9.80119 0 7.5 0ZM7.5 1.7C8.88071 1.7 10 2.84167 10 4.25C10 5.65833 8.88071 6.8 7.5 6.8C6.11929 6.8 5 5.65833 5 4.25C5 2.84167 6.11929 1.7 7.5 1.7ZM14.9962 14.2656C14.9015 12.004 13.074 10.2 10.8333 10.2H4.16667L3.98593 10.2039C1.76859 10.3005 0 12.1646 0 14.45V16.15L0.00560644 16.2491C0.053744 16.6719 0.40597 17 0.833333 17C1.29357 17 1.66667 16.6194 1.66667 16.15V14.45L1.67091 14.3002C1.74695 12.9616 2.83527 11.9 4.16667 11.9H10.8333L10.9802 11.9043C12.2926 11.9819 13.3333 13.092 13.3333 14.45V16.15L13.3389 16.2491C13.3871 16.6719 13.7393 17 14.1667 17C14.6269 17 15 16.6194 15 16.15V14.45L14.9962 14.2656ZM15.8598 10.948C15.9749 10.4935 16.4294 10.2201 16.875 10.3375C18.6523 10.8056 19.9123 12.4012 19.9956 14.2571L20 14.45V16.15C20 16.6194 19.6269 17 19.1667 17C18.7393 17 18.3871 16.6719 18.3389 16.2491L18.3333 16.15V14.4506C18.3325 13.2885 17.5615 12.274 16.4583 11.9835C16.0127 11.8661 15.7447 11.4025 15.8598 10.948ZM13.54 0.137063C13.0942 0.0206225 12.6402 0.294895 12.526 0.749667C12.4119 1.20444 12.6808 1.6675 13.1266 1.78394C14.2328 2.07283 15.0065 3.08953 15.0065 4.25425C15.0065 5.41897 14.2328 6.43567 13.1266 6.72456C12.6808 6.841 12.4119 7.30406 12.526 7.75883C12.6402 8.21361 13.0942 8.48788 13.54 8.37144C15.3837 7.88994 16.6732 6.19545 16.6732 4.25425C16.6732 2.31305 15.3837 0.618555 13.54 0.137063Z" fill="url(#paint0_linear)"/>
<defs>
<linearGradient id="paint0_linear" x1="1.20855" y1="15.5402" x2="20" y2="15.5402" gradientUnits="userSpaceOnUse">
<stop stop-color="#6E319C"/>
<stop offset="1" stop-color="#942D93"/>
</linearGradient>
</defs>
</svg>
