<svg width="19" height="15" viewBox="0 0 19 15" fill="none" xmlns="http://www.w3.org/2000/svg">
<path fill-rule="evenodd" clip-rule="evenodd" d="M19 9.18239C19 11.1978 18.3367 13.111 17.0818 14.7153C16.8342 15.0319 16.3686 15.0933 16.0421 14.8546C15.7152 14.6155 15.6507 14.1654 15.8979 13.8493C16.9562 12.4964 17.5156 10.8826 17.5156 9.18239C17.5156 4.89832 13.9278 1.4354 9.5 1.4354C5.0692 1.4354 1.48438 4.90098 1.48438 9.18239C1.48438 10.8826 2.04377 12.4964 3.10197 13.8493C3.34927 14.1654 3.28476 14.6155 2.95788 14.8546C2.63085 15.0938 2.16553 15.0314 1.91809 14.7153C0.66333 13.111 0 11.1978 0 9.18239C0 4.10464 4.25192 0 9.5 0C14.751 0 19 4.10745 19 9.18239ZM14.2026 4.86005C14.4924 5.14026 14.4924 5.59472 14.2026 5.87493L11.7834 8.21433C11.9826 8.5694 12.0959 8.97591 12.0959 9.40737C12.0959 10.7916 10.9313 11.9176 9.5 11.9176C8.06853 11.9176 6.90408 10.7916 6.90408 9.40737C6.90408 8.02327 8.06853 6.89709 9.5 6.89709C9.94633 6.89709 10.3666 7.00671 10.7337 7.19931L13.153 4.85991C13.4429 4.5797 13.9127 4.5797 14.2026 4.86005ZM9.5 8.33264C10.1129 8.33264 10.6115 8.81484 10.6115 9.40751C10.6115 10.0002 10.1129 10.4824 9.5 10.4824C8.88712 10.4824 8.38846 10.0002 8.38846 9.40751C8.38846 8.81484 8.88712 8.33264 9.5 8.33264Z" fill="url(#paint0_linear)"/>
<defs>
<linearGradient id="paint0_linear" x1="1.14812" y1="13.712" x2="19" y2="13.712" gradientUnits="userSpaceOnUse">
<stop stop-color="#6E319C"/>
<stop offset="1" stop-color="#942D93"/>
</linearGradient>
</defs>
</svg>
