<svg width="12" height="13" viewBox="0 0 12 13" fill="none" xmlns="http://www.w3.org/2000/svg">
<path fill-rule="evenodd" clip-rule="evenodd" d="M9.10952 0.995927L3.95613 6.14933C3.8866 6.21885 3.83728 6.30596 3.81344 6.40134L3.27098 8.57119C3.17165 8.96848 3.53152 9.32835 3.92881 9.22902L6.09866 8.68656C6.19404 8.66272 6.28115 8.6134 6.35067 8.54387L11.5041 3.39048C12.1653 2.72924 12.1653 1.65716 11.5041 0.995927C10.8428 0.334691 9.77076 0.334691 9.10952 0.995927ZM10.7842 1.81614C10.9732 2.0549 10.9575 2.40274 10.7369 2.62332L5.68935 7.66991L4.54259 7.95687L4.82955 6.8101L9.87668 1.76309C10.1142 1.52554 10.4994 1.52554 10.7369 1.76309L10.7842 1.81614ZM5.96709 2.1932C5.96709 1.89361 5.72423 1.65074 5.42463 1.65074H1.62739L1.53177 1.6535C0.677493 1.703 0 2.41144 0 3.27813V10.8726L0.0027626 10.9682C0.0522604 11.8225 0.760706 12.5 1.62739 12.5H9.22187L9.31749 12.4972C10.1718 12.4477 10.8493 11.7393 10.8493 10.8726V7.07537L10.8456 7.01211C10.8143 6.74232 10.585 6.53291 10.3068 6.53291C10.0072 6.53291 9.76434 6.77577 9.76434 7.07537V10.8726L9.76069 10.9359C9.72935 11.2057 9.50007 11.4151 9.22187 11.4151H1.62739L1.56413 11.4114C1.29434 11.3801 1.08493 11.1508 1.08493 10.8726V3.27813L1.08858 3.21486C1.11991 2.94508 1.34919 2.73566 1.62739 2.73566H5.42463L5.48789 2.73201C5.75768 2.70068 5.96709 2.4714 5.96709 2.1932Z" fill="url(#paint0_linear)"/>
<defs>
<linearGradient id="paint0_linear" x1="0.725127" y1="11.4696" x2="12" y2="11.4696" gradientUnits="userSpaceOnUse">
<stop stop-color="#6E319C"/>
<stop offset="1" stop-color="#942D93"/>
</linearGradient>
</defs>
</svg>
