<svg width="16" height="16" viewBox="0 0 16 16" fill="none" xmlns="http://www.w3.org/2000/svg">
<path fill-rule="evenodd" clip-rule="evenodd" d="M0.486998 5.13263L0.402186 5.16798C-0.136569 5.43131 -0.141314 6.22878 0.431884 6.48354L6.7209 9.27834L9.51644 15.5681C9.78393 16.1699 10.6498 16.1346 10.8674 15.5129L15.9525 0.983971C15.9604 0.962901 15.9673 0.941538 15.9731 0.919959C16.0488 0.647366 15.9587 0.384503 15.7814 0.21006C15.7828 0.211478 15.7842 0.212905 15.7857 0.214337M0.486998 5.13263L15.016 0.0474854L0.486998 5.13263ZM15.016 0.0474854C14.9216 0.0828148 14.8331 0.138432 14.7572 0.214337L12.505 2.46655L2.69797 5.899L7.11108 7.86046L6.75791 8.21362L6.69742 8.28213C6.4756 8.56741 6.49577 8.97991 6.75791 9.24205C7.04191 9.52604 7.50235 9.52604 7.78635 9.24205L8.13949 8.88891L10.1003 13.3013L13.5319 3.49649" fill="white"/>
</svg>
