<svg width="21" height="20" viewBox="0 0 21 20" fill="none" xmlns="http://www.w3.org/2000/svg">
<path fill-rule="evenodd" clip-rule="evenodd" d="M15.6562 10C15.4894 10 15.3253 10.019 15.1678 10.055C14.9569 7.782 13.1541 6 10.9688 6C10.71 6 10.5 6.224 10.5 6.5V14.5C10.5 14.776 10.71 15 10.9688 15H15.6562C16.9491 15 18 13.879 18 12.5C18 11.122 16.9491 10 15.6562 10ZM9.03261 7.03846C8.76261 7.03846 8.54348 7.26138 8.54348 7.53606V14.5024C8.54348 14.7771 8.76261 15 9.03261 15C9.30261 15 9.52174 14.7771 9.52174 14.5024V7.53606C9.52174 7.26138 9.30261 7.03846 9.03261 7.03846ZM6.58696 9.60577C6.58696 9.33508 6.80609 9.11538 7.07609 9.11538C7.34609 9.11538 7.56522 9.33508 7.56522 9.60577V14.5096C7.56522 14.7803 7.34609 15 7.07609 15C6.80609 15 6.58696 14.7803 6.58696 14.5096V9.60577ZM5.44565 9.11538C5.17565 9.11538 4.95652 9.33508 4.95652 9.60577V14.5096C4.95652 14.7803 5.17565 15 5.44565 15C5.71565 15 5.93478 14.7803 5.93478 14.5096V9.60577C5.93478 9.33508 5.71565 9.11538 5.44565 9.11538ZM3 11.0192C3 10.7326 3.21913 10.5 3.48913 10.5C3.75913 10.5 3.97826 10.7326 3.97826 11.0192V14.1346C3.97826 14.4212 3.75913 14.6538 3.48913 14.6538C3.21913 14.6538 3 14.4212 3 14.1346V11.0192Z" fill="#CA5300"/>
</svg>
