<svg width="20" height="20" viewBox="0 0 20 20" fill="none" xmlns="http://www.w3.org/2000/svg">
<path fill-rule="evenodd" clip-rule="evenodd" d="M3.83333 2H6.75C7.20833 2 7.58333 2.375 7.58333 2.83333C7.58333 3.875 7.75 4.875 8.05833 5.80833C8.15 6.1 8.08333 6.425 7.85 6.65833L6.01667 8.49167C7.21667 10.85 9.15 12.775 11.5083 13.9833L13.3417 12.15C13.5083 11.9917 13.7167 11.9083 13.9333 11.9083C14.0167 11.9083 14.1083 11.9167 14.1917 11.95C15.125 12.2583 16.1333 12.425 17.1667 12.425C17.625 12.425 18 12.8 18 13.2583V16.1667C18 16.625 17.625 17 17.1667 17C9.34167 17 3 10.6583 3 2.83333C3 2.375 3.375 2 3.83333 2ZM5.95 3.66667C6 4.40833 6.125 5.13333 6.325 5.825L5.325 6.825C4.98333 5.825 4.76667 4.76667 4.69167 3.66667H5.95ZM14.1667 13.6833C14.875 13.8833 15.6 14.0083 16.3333 14.0583V15.3C15.2333 15.225 14.175 15.0083 13.1667 14.675L14.1667 13.6833Z" fill="#7838A2"/>
</svg>
