<svg width="19" height="17" viewBox="0 0 19 17" fill="none" xmlns="http://www.w3.org/2000/svg">
<path fill-rule="evenodd" clip-rule="evenodd" d="M8.63163 16.0241L8.63636 16.151C8.63636 17.2453 10.2466 17.283 10.3576 16.2642C10.3616 16.2278 10.3636 16.19 10.3636 16.151C10.3636 15.212 11.137 14.4509 12.0909 14.4509H18.1364C18.6133 14.4509 19 14.0703 19 13.6008V0.850051C19 0.380581 18.6133 0 18.1364 0H12.9545C11.542 0 10.2878 0.667583 9.5 1.69969C8.71217 0.667583 7.45802 0 6.04545 0H0.863636C0.386663 0 0 0.380581 0 0.850051V13.6008C0 14.0703 0.386663 14.4509 0.863636 14.4509H6.90909C7.81968 14.4509 8.56569 15.1444 8.63163 16.0241ZM10.3636 4.25025L10.3636 13.2055L10.489 13.1377C10.9199 12.9153 11.4044 12.7798 11.9185 12.7549L12.0909 12.7508H17.2727V1.7001H12.9545C11.5236 1.7001 10.3636 2.84184 10.3636 4.25025ZM8.63636 13.2064V4.25025C8.63636 2.89214 7.55775 1.78199 6.19769 1.70443L6.04545 1.7001H1.72727V12.7508H6.90909C7.48724 12.7508 8.03222 12.8905 8.51104 13.1377L8.63636 13.2064Z" fill="url(#paint0_linear)"/>
<defs>
<linearGradient id="paint0_linear" x1="1.14812" y1="15.5412" x2="19" y2="15.5412" gradientUnits="userSpaceOnUse">
<stop stop-color="#6E319C"/>
<stop offset="1" stop-color="#942D93"/>
</linearGradient>
</defs>
</svg>
