<svg width="18" height="18" viewBox="0 0 18 18" fill="none" xmlns="http://www.w3.org/2000/svg">
<path fill-rule="evenodd" clip-rule="evenodd" d="M13.4939 0.722765C13.442 0.315851 13.0616 0 12.6 0C12.1029 0 11.7 0.366312 11.7 0.818182V1.63636H6.3V0.818182L6.29395 0.722765C6.24196 0.315851 5.86155 0 5.4 0C4.90294 0 4.5 0.366312 4.5 0.818182V1.63636H2.7C1.20883 1.63636 0 2.7353 0 4.09091V7.36364V15.5455C0 16.9011 1.20883 18 2.7 18H15.3C16.7912 18 18 16.9011 18 15.5455V7.36364V4.09091C18 2.7353 16.7912 1.63636 15.3 1.63636H13.5V0.818182L13.4939 0.722765ZM16.2 6.54545V4.09091C16.2 3.63904 15.7971 3.27273 15.3 3.27273H13.5V4.09091C13.5 4.54278 13.0971 4.90909 12.6 4.90909C12.1384 4.90909 11.758 4.59324 11.7061 4.18633L11.7 4.09091V3.27273H6.3V4.09091C6.3 4.54278 5.89706 4.90909 5.4 4.90909C4.93845 4.90909 4.55804 4.59324 4.50605 4.18633L4.5 4.09091V3.27273H2.7C2.20294 3.27273 1.8 3.63904 1.8 4.09091V6.54545H16.2ZM1.8 8.18182H16.2V15.5455C16.2 15.9973 15.7971 16.3636 15.3 16.3636H2.7C2.20294 16.3636 1.8 15.9973 1.8 15.5455V8.18182Z" fill="#BCBCBC"/>
</svg>
