<svg width="18" height="14" viewBox="0 0 18 14" fill="none" xmlns="http://www.w3.org/2000/svg">
<path fill-rule="evenodd" clip-rule="evenodd" d="M15.5455 0H2.45455C1.1074 0 0.00770291 1.04092 4.02893e-05 2.31988C1.34419e-05 2.32436 0 2.32885 0 2.33333V2.34286M15.5455 0C16.8929 0 17.9928 1.04142 18 2.32082L15.5455 0ZM16.3636 3.82718L9.4692 8.41496C9.21878 8.58159 8.89469 8.60011 8.62791 8.4705L8.5308 8.41496L1.63636 3.82718V11.6667C1.63636 12.0927 2.00641 12.4444 2.45455 12.4444H15.5455C15.9936 12.4444 16.3636 12.0927 16.3636 11.6667V3.82718ZM0 2.34286V11.6667C0 12.9518 1.10268 14 2.45455 14H15.5455C16.8973 14 18 12.9518 18 11.6667V2.34286M16.2764 1.98639L9 6.82811L1.72357 1.98639C1.85888 1.73205 2.13713 1.55556 2.45455 1.55556H15.5455C15.8629 1.55556 16.1411 1.73205 16.2764 1.98639Z" fill="url(#paint0_linear)"/>
<defs>
<linearGradient id="paint0_linear" x1="1.08769" y1="12.7978" x2="18" y2="12.7978" gradientUnits="userSpaceOnUse">
<stop stop-color="#6E319C"/>
<stop offset="1" stop-color="#942D93"/>
</linearGradient>
</defs>
</svg>
