<svg width="32" height="31" viewBox="0 0 32 31" fill="none" xmlns="http://www.w3.org/2000/svg">
<path d="M5.87945 27.4572L31.678 19.6264C31.8889 18.6517 32 17.6423 32 16.6079C32 8.41398 25.0472 1.77148 16.4706 1.77148C7.8939 1.77148 0.941162 8.41398 0.941162 16.6079C0.941162 20.8908 2.84139 24.749 5.87945 27.4572Z" fill="#009CF2"/>
<path d="M5.66849 13.2858C6.48054 12.7821 7.45349 12.4935 8.47524 12.4935C9.11493 12.4935 9.73901 12.6031 10.33 12.8191L10.4268 12.8545L10.4734 12.7693C11.0229 11.7647 12.0721 11.0641 13.2802 10.8953C13.503 10.8642 13.6888 10.727 13.7649 10.5375C14.1993 9.45615 14.9958 8.5576 15.9999 7.93817C15.3701 5.42131 12.9065 3.54297 9.9611 3.54297C6.5389 3.54297 3.76465 6.07786 3.76465 9.20479C3.76458 10.8087 4.49565 12.2557 5.66849 13.2858Z" fill="#FFE400"/>
<path d="M5.99684 8.65007C5.99684 6.51734 6.97987 4.63956 8.47053 3.54297C5.83698 3.77354 3.76465 6.21688 3.76465 9.19727C3.76465 10.8041 4.36797 12.2538 5.33588 13.2858C5.89525 12.8646 6.54726 12.5943 7.23781 12.5162C6.46249 11.462 5.99684 10.1167 5.99684 8.65007Z" fill="#FDCA00"/>
<path d="M13.1862 15.4897C13.2691 15.6937 13.5076 15.8187 13.7539 15.787C13.9037 15.7677 14.0567 15.7579 14.2085 15.7579C15.5002 15.7579 16.6556 16.4521 17.1519 17.5265C17.1603 17.5446 17.1698 17.5619 17.1802 17.5787L17.2646 17.7143L17.3684 17.5901C18.9932 15.6439 21.4718 14.5277 24.1686 14.5277C26.8083 14.5277 29.2493 15.6353 30.8357 17.4315C31.5301 17.0237 31.996 16.3293 31.9999 15.5336C32.0055 14.3944 31.0882 13.4477 29.8824 13.2634C29.7155 13.2379 29.5784 13.1344 29.5134 12.9937C28.9308 11.7328 27.5503 10.8459 25.9389 10.8459C25.7514 10.8459 25.5672 10.858 25.3869 10.8813C25.1622 10.9103 24.9415 10.8011 24.8636 10.6093C24.029 8.55358 21.8388 7.08569 19.2665 7.08569C16.6969 7.08569 14.5072 8.54994 13.6705 10.6022C13.608 10.7555 13.4569 10.8626 13.2775 10.8873C11.9756 11.0666 10.8877 11.8297 10.3529 12.8705C11.6419 13.3339 12.6925 14.2735 13.1862 15.4897Z" fill="#8ADAF9"/>
<path d="M12.8766 16.8231C13.0292 16.8015 13.185 16.7905 13.3397 16.7905C13.4307 16.7905 13.5209 16.7945 13.6103 16.8018C13.9881 15.371 15.1756 14.2161 16.7447 13.9437C16.9328 13.9111 17.12 13.8923 17.3055 13.8866C17.5366 13.8794 17.7367 13.7207 17.7774 13.4956C18.2061 11.121 20.0663 9.14681 22.5882 8.65949C21.5088 7.68244 20.0719 7.08569 18.4931 7.08569C15.8751 7.08569 13.6442 8.7243 12.7918 11.0209C12.7281 11.1925 12.5741 11.3123 12.3914 11.34C11.0649 11.5406 9.95656 12.3946 9.41174 13.5593C10.7249 14.0779 11.7952 15.1293 12.2983 16.4903C12.3826 16.7187 12.6256 16.8585 12.8766 16.8231Z" fill="#5CCBF7"/>
<path d="M32 19.4376C30.5645 16.8392 27.621 15.0571 24.2217 15.0571C21.3301 15.0571 18.77 16.3476 17.1861 18.3324C17.2677 18.442 17.3916 18.5175 17.535 18.5398C18.5416 18.6961 19.269 19.4887 19.2645 20.4244C19.2595 21.4693 18.3055 22.3194 17.1378 22.3194H10.3024C9.8448 22.7752 9.47484 23.3059 9.21805 23.8895C9.13906 24.0691 8.96553 24.1982 8.7564 24.2278C7.14878 24.4554 5.88155 25.6238 5.64709 27.099C8.48096 29.5186 12.284 31 16.4658 31C24.1208 31 30.5091 26.0382 32 19.4376Z" fill="#B8E9FA"/>
<path d="M9.88233 2.65714C9.62246 2.65714 9.41174 2.38099 9.41174 2.04024V0.616905C9.41174 0.276232 9.62246 0 9.88233 0C10.1422 0 10.3529 0.276232 10.3529 0.616905V2.04031C10.3529 2.38099 10.1422 2.65714 9.88233 2.65714Z" fill="#FFE400"/>
<path d="M5.99191 3.54289C5.78562 3.54289 5.58506 3.42369 5.47449 3.21053L4.78599 1.88265C4.62117 1.56487 4.71902 1.15842 5.00442 0.97489C5.28981 0.791357 5.65483 0.900315 5.81966 1.2181L6.50822 2.54598C6.67305 2.86384 6.5752 3.2702 6.2898 3.45374C6.19577 3.51415 6.09314 3.54289 5.99191 3.54289Z" fill="#FDCA00"/>
<path d="M3.99898 6.1999C3.8792 6.1999 3.75776 6.17561 3.64659 6.12455L2.23549 5.47661C1.89781 5.32149 1.78203 4.97804 1.97705 4.70938C2.17199 4.44073 2.60388 4.34871 2.94165 4.50383L4.35267 5.15177C4.69044 5.30689 4.80613 5.65034 4.6111 5.91899C4.48036 6.09916 4.24298 6.1999 3.99898 6.1999Z" fill="#FDCA00"/>
<path d="M2.16793 9.74289H0.655516C0.29352 9.74289 0 9.54459 0 9.30003C0 9.05548 0.29344 8.85718 0.655516 8.85718H2.16801C2.53001 8.85718 2.82353 9.05542 2.82353 9.30003C2.82345 9.54459 2.53001 9.74289 2.16793 9.74289Z" fill="#FDCA00"/>
<path d="M2.58925 14.1713C2.34517 14.1713 2.10788 14.0706 1.97705 13.8904C1.78203 13.6218 1.89781 13.2783 2.23548 13.1232L3.64654 12.4752C3.98421 12.3201 4.41618 12.4122 4.61111 12.6808C4.80613 12.9495 4.69044 13.2929 4.35268 13.448L2.94171 14.096C2.83045 14.147 2.70902 14.1713 2.58925 14.1713Z" fill="#FDCA00"/>
<path d="M15.7658 6.1999C15.5217 6.1999 15.2844 6.09916 15.1536 5.91899C14.9585 5.65033 15.0743 5.30688 15.412 5.15176L16.823 4.50381C17.1608 4.34869 17.5927 4.44078 17.7876 4.70937C17.9827 4.97803 17.8669 5.32148 17.5292 5.4766L16.1182 6.12462C16.007 6.17561 15.8856 6.1999 15.7658 6.1999Z" fill="#FFE400"/>
<path d="M14.714 3.54289C14.6128 3.54289 14.5101 3.51415 14.4162 3.45374C14.1307 3.27021 14.0329 2.86385 14.1978 2.54598L14.8863 1.21812C15.051 0.900251 15.416 0.791376 15.7015 0.974908C15.987 1.15844 16.0848 1.5648 15.9199 1.88266L15.2314 3.21053C15.1209 3.4237 14.9202 3.54289 14.714 3.54289Z" fill="#FFE400"/>
<path d="M12.4862 28.2124C12.7394 28.1186 12.9201 27.8983 12.9755 27.6347C13.4723 25.2727 15.3436 23.3236 17.8694 22.8459C18.1633 22.7904 18.456 22.7568 18.7464 22.7438C19.108 22.7275 19.418 22.4726 19.4767 22.1164C20.0673 18.5352 22.6997 15.4989 26.353 14.5079C25.5943 14.2891 24.7925 14.1714 23.963 14.1714C21.1116 14.1714 18.5872 15.5583 17.0254 17.6913C17.1058 17.809 17.228 17.8902 17.3693 17.9142C18.3619 18.0821 19.0792 18.9339 19.0748 19.9396C19.0699 21.0625 18.1291 21.9761 16.9776 21.9761H10.2375C9.78633 22.4659 9.42152 23.0362 9.16831 23.6634C9.09041 23.8564 8.91931 23.9952 8.71309 24.027C7.12793 24.2716 5.87834 25.5273 5.64709 27.1127C7.00068 28.3722 8.57888 29.3942 10.3147 30.1142C10.7715 29.2552 11.5329 28.5654 12.4862 28.2124Z" fill="#8ADAF9"/>
<path d="M3.60766 15.8516C3.75341 15.8292 3.87618 15.732 3.927 15.5927C4.60703 13.7293 6.38661 12.3999 8.4749 12.3999C10.5654 12.3999 12.3455 13.7327 13.0237 15.5992C13.087 15.7735 13.2664 15.8725 13.449 15.8462C13.5955 15.8251 13.7453 15.8141 13.8976 15.8141C15.2072 15.8141 16.3292 16.6193 16.8026 17.7642C16.8555 17.892 16.9669 17.9859 17.1026 18.0091C18.0824 18.1763 18.828 19.036 18.8235 20.0703C18.8184 21.2237 17.8566 22.1428 16.7099 22.1428H4.14476C2.40892 22.1428 0.956743 20.7531 0.941289 19.0072C0.927179 17.4108 2.08872 16.0853 3.60766 15.8516Z" fill="#E6F8FC"/>
<path d="M3.2671 20.5966C3.25296 18.9947 4.41694 17.6648 5.93906 17.4303C6.0851 17.4078 6.20814 17.3102 6.25906 17.1705C6.94046 15.3007 8.72382 13.9668 10.8165 13.9668C11.3103 13.9668 11.7864 14.0419 12.2353 14.18C11.3455 13.093 9.99877 12.3999 8.49067 12.3999C6.39801 12.3999 4.61465 13.7339 3.93325 15.6036C3.88233 15.7433 3.75929 15.8409 3.61325 15.8634C2.09113 16.0978 0.92715 17.4279 0.94129 19.0297C0.955368 20.6248 2.16305 21.923 3.69202 22.1428C3.42704 21.6874 3.27212 21.1608 3.2671 20.5966Z" fill="#B8E9FA"/>
<ellipse cx="10.7685" cy="7.74461" rx="1.73584" ry="1.64105" transform="rotate(-22.5141 10.7685 7.74461)" fill="#FFF442"/>
<ellipse cx="13.3958" cy="5.99475" rx="0.677933" ry="0.626095" fill="#FFF442"/>
</svg>
